<svg xmlns="http://www.w3.org/2000/svg" width="1500" height="500" viewBox="0 0 1500 500">
  <defs>
    <linearGradient id="bg" x1="0" y1="0" x2="1" y2="1">
      <stop offset="0" stop-color="#141326"/>
      <stop offset="0.55" stop-color="#0f0e1f"/>
      <stop offset="1" stop-color="#0b0a17"/>
    </linearGradient>
    <radialGradient id="glow" cx="18%" cy="30%" r="60%">
      <stop offset="0" stop-color="#6246FF" stop-opacity="0.28"/>
      <stop offset="1" stop-color="#6246FF" stop-opacity="0"/>
    </radialGradient>
    <linearGradient id="accent" x1="0" y1="0" x2="1" y2="0">
      <stop offset="0" stop-color="#8b74ff"/>
      <stop offset="1" stop-color="#6246FF"/>
    </linearGradient>
    <linearGradient id="waveGrad" x1="0" y1="1" x2="0" y2="0">
      <stop offset="0" stop-color="#6246FF"/>
      <stop offset="1" stop-color="#a996ff"/>
    </linearGradient>
  </defs>

  <rect width="1500" height="500" fill="url(#bg)"/>
  <rect width="1500" height="500" fill="url(#glow)"/>
  <circle cx="1000" cy="70" r="2.2" fill="#6246FF" opacity="0.220"/><circle cx="1034" cy="70" r="2.2" fill="#6246FF" opacity="0.208"/><circle cx="1068" cy="70" r="2.2" fill="#6246FF" opacity="0.196"/><circle cx="1102" cy="70" r="2.2" fill="#6246FF" opacity="0.184"/><circle cx="1136" cy="70" r="2.2" fill="#6246FF" opacity="0.172"/><circle cx="1170" cy="70" r="2.2" fill="#6246FF" opacity="0.160"/><circle cx="1204" cy="70" r="2.2" fill="#6246FF" opacity="0.148"/><circle cx="1238" cy="70" r="2.2" fill="#6246FF" opacity="0.136"/><circle cx="1272" cy="70" r="2.2" fill="#6246FF" opacity="0.124"/><circle cx="1306" cy="70" r="2.2" fill="#6246FF" opacity="0.112"/><circle cx="1340" cy="70" r="2.2" fill="#6246FF" opacity="0.100"/><circle cx="1374" cy="70" r="2.2" fill="#6246FF" opacity="0.088"/><circle cx="1408" cy="70" r="2.2" fill="#6246FF" opacity="0.076"/><circle cx="1442" cy="70" r="2.2" fill="#6246FF" opacity="0.064"/><circle cx="1000" cy="104" r="2.2" fill="#6246FF" opacity="0.220"/><circle cx="1034" cy="104" r="2.2" fill="#6246FF" opacity="0.208"/><circle cx="1068" cy="104" r="2.2" fill="#6246FF" opacity="0.196"/><circle cx="1102" cy="104" r="2.2" fill="#6246FF" opacity="0.184"/><circle cx="1136" cy="104" r="2.2" fill="#6246FF" opacity="0.172"/><circle cx="1170" cy="104" r="2.2" fill="#6246FF" opacity="0.160"/><circle cx="1204" cy="104" r="2.2" fill="#6246FF" opacity="0.148"/><circle cx="1238" cy="104" r="2.2" fill="#6246FF" opacity="0.136"/><circle cx="1272" cy="104" r="2.2" fill="#6246FF" opacity="0.124"/><circle cx="1306" cy="104" r="2.2" fill="#6246FF" opacity="0.112"/><circle cx="1340" cy="104" r="2.2" fill="#6246FF" opacity="0.100"/><circle cx="1374" cy="104" r="2.2" fill="#6246FF" opacity="0.088"/><circle cx="1408" cy="104" r="2.2" fill="#6246FF" opacity="0.076"/><circle cx="1442" cy="104" r="2.2" fill="#6246FF" opacity="0.064"/><circle cx="1000" cy="138" r="2.2" fill="#6246FF" opacity="0.220"/><circle cx="1034" cy="138" r="2.2" fill="#6246FF" opacity="0.208"/><circle cx="1068" cy="138" r="2.2" fill="#6246FF" opacity="0.196"/><circle cx="1102" cy="138" r="2.2" fill="#6246FF" opacity="0.184"/><circle cx="1136" cy="138" r="2.2" fill="#6246FF" opacity="0.172"/><circle cx="1170" cy="138" r="2.2" fill="#6246FF" opacity="0.160"/><circle cx="1204" cy="138" r="2.2" fill="#6246FF" opacity="0.148"/><circle cx="1238" cy="138" r="2.2" fill="#6246FF" opacity="0.136"/><circle cx="1272" cy="138" r="2.2" fill="#6246FF" opacity="0.124"/><circle cx="1306" cy="138" r="2.2" fill="#6246FF" opacity="0.112"/><circle cx="1340" cy="138" r="2.2" fill="#6246FF" opacity="0.100"/><circle cx="1374" cy="138" r="2.2" fill="#6246FF" opacity="0.088"/><circle cx="1408" cy="138" r="2.2" fill="#6246FF" opacity="0.076"/><circle cx="1442" cy="138" r="2.2" fill="#6246FF" opacity="0.064"/><circle cx="1000" cy="172" r="2.2" fill="#6246FF" opacity="0.220"/><circle cx="1034" cy="172" r="2.2" fill="#6246FF" opacity="0.208"/><circle cx="1068" cy="172" r="2.2" fill="#6246FF" opacity="0.196"/><circle cx="1102" cy="172" r="2.2" fill="#6246FF" opacity="0.184"/><circle cx="1136" cy="172" r="2.2" fill="#6246FF" opacity="0.172"/><circle cx="1170" cy="172" r="2.2" fill="#6246FF" opacity="0.160"/><circle cx="1204" cy="172" r="2.2" fill="#6246FF" opacity="0.148"/><circle cx="1238" cy="172" r="2.2" fill="#6246FF" opacity="0.136"/><circle cx="1272" cy="172" r="2.2" fill="#6246FF" opacity="0.124"/><circle cx="1306" cy="172" r="2.2" fill="#6246FF" opacity="0.112"/><circle cx="1340" cy="172" r="2.2" fill="#6246FF" opacity="0.100"/><circle cx="1374" cy="172" r="2.2" fill="#6246FF" opacity="0.088"/><circle cx="1408" cy="172" r="2.2" fill="#6246FF" opacity="0.076"/><circle cx="1442" cy="172" r="2.2" fill="#6246FF" opacity="0.064"/><circle cx="1000" cy="206" r="2.2" fill="#6246FF" opacity="0.220"/><circle cx="1034" cy="206" r="2.2" fill="#6246FF" opacity="0.208"/><circle cx="1068" cy="206" r="2.2" fill="#6246FF" opacity="0.196"/><circle cx="1102" cy="206" r="2.2" fill="#6246FF" opacity="0.184"/><circle cx="1136" cy="206" r="2.2" fill="#6246FF" opacity="0.172"/><circle cx="1170" cy="206" r="2.2" fill="#6246FF" opacity="0.160"/><circle cx="1204" cy="206" r="2.2" fill="#6246FF" opacity="0.148"/><circle cx="1238" cy="206" r="2.2" fill="#6246FF" opacity="0.136"/><circle cx="1272" cy="206" r="2.2" fill="#6246FF" opacity="0.124"/><circle cx="1306" cy="206" r="2.2" fill="#6246FF" opacity="0.112"/><circle cx="1340" cy="206" r="2.2" fill="#6246FF" opacity="0.100"/><circle cx="1374" cy="206" r="2.2" fill="#6246FF" opacity="0.088"/><circle cx="1408" cy="206" r="2.2" fill="#6246FF" opacity="0.076"/><circle cx="1442" cy="206" r="2.2" fill="#6246FF" opacity="0.064"/><circle cx="1000" cy="240" r="2.2" fill="#6246FF" opacity="0.220"/><circle cx="1034" cy="240" r="2.2" fill="#6246FF" opacity="0.208"/><circle cx="1068" cy="240" r="2.2" fill="#6246FF" opacity="0.196"/><circle cx="1102" cy="240" r="2.2" fill="#6246FF" opacity="0.184"/><circle cx="1136" cy="240" r="2.2" fill="#6246FF" opacity="0.172"/><circle cx="1170" cy="240" r="2.2" fill="#6246FF" opacity="0.160"/><circle cx="1204" cy="240" r="2.2" fill="#6246FF" opacity="0.148"/><circle cx="1238" cy="240" r="2.2" fill="#6246FF" opacity="0.136"/><circle cx="1272" cy="240" r="2.2" fill="#6246FF" opacity="0.124"/><circle cx="1306" cy="240" r="2.2" fill="#6246FF" opacity="0.112"/><circle cx="1340" cy="240" r="2.2" fill="#6246FF" opacity="0.100"/><circle cx="1374" cy="240" r="2.2" fill="#6246FF" opacity="0.088"/><circle cx="1408" cy="240" r="2.2" fill="#6246FF" opacity="0.076"/><circle cx="1442" cy="240" r="2.2" fill="#6246FF" opacity="0.064"/><circle cx="1000" cy="274" r="2.2" fill="#6246FF" opacity="0.220"/><circle cx="1034" cy="274" r="2.2" fill="#6246FF" opacity="0.208"/><circle cx="1068" cy="274" r="2.2" fill="#6246FF" opacity="0.196"/><circle cx="1102" cy="274" r="2.2" fill="#6246FF" opacity="0.184"/><circle cx="1136" cy="274" r="2.2" fill="#6246FF" opacity="0.172"/><circle cx="1170" cy="274" r="2.2" fill="#6246FF" opacity="0.160"/><circle cx="1204" cy="274" r="2.2" fill="#6246FF" opacity="0.148"/><circle cx="1238" cy="274" r="2.2" fill="#6246FF" opacity="0.136"/><circle cx="1272" cy="274" r="2.2" fill="#6246FF" opacity="0.124"/><circle cx="1306" cy="274" r="2.2" fill="#6246FF" opacity="0.112"/><circle cx="1340" cy="274" r="2.2" fill="#6246FF" opacity="0.100"/><circle cx="1374" cy="274" r="2.2" fill="#6246FF" opacity="0.088"/><circle cx="1408" cy="274" r="2.2" fill="#6246FF" opacity="0.076"/><circle cx="1442" cy="274" r="2.2" fill="#6246FF" opacity="0.064"/><circle cx="1000" cy="308" r="2.2" fill="#6246FF" opacity="0.220"/><circle cx="1034" cy="308" r="2.2" fill="#6246FF" opacity="0.208"/><circle cx="1068" cy="308" r="2.2" fill="#6246FF" opacity="0.196"/><circle cx="1102" cy="308" r="2.2" fill="#6246FF" opacity="0.184"/><circle cx="1136" cy="308" r="2.2" fill="#6246FF" opacity="0.172"/><circle cx="1170" cy="308" r="2.2" fill="#6246FF" opacity="0.160"/><circle cx="1204" cy="308" r="2.2" fill="#6246FF" opacity="0.148"/><circle cx="1238" cy="308" r="2.2" fill="#6246FF" opacity="0.136"/><circle cx="1272" cy="308" r="2.2" fill="#6246FF" opacity="0.124"/><circle cx="1306" cy="308" r="2.2" fill="#6246FF" opacity="0.112"/><circle cx="1340" cy="308" r="2.2" fill="#6246FF" opacity="0.100"/><circle cx="1374" cy="308" r="2.2" fill="#6246FF" opacity="0.088"/><circle cx="1408" cy="308" r="2.2" fill="#6246FF" opacity="0.076"/><circle cx="1442" cy="308" r="2.2" fill="#6246FF" opacity="0.064"/><circle cx="1000" cy="342" r="2.2" fill="#6246FF" opacity="0.220"/><circle cx="1034" cy="342" r="2.2" fill="#6246FF" opacity="0.208"/><circle cx="1068" cy="342" r="2.2" fill="#6246FF" opacity="0.196"/><circle cx="1102" cy="342" r="2.2" fill="#6246FF" opacity="0.184"/><circle cx="1136" cy="342" r="2.2" fill="#6246FF" opacity="0.172"/><circle cx="1170" cy="342" r="2.2" fill="#6246FF" opacity="0.160"/><circle cx="1204" cy="342" r="2.2" fill="#6246FF" opacity="0.148"/><circle cx="1238" cy="342" r="2.2" fill="#6246FF" opacity="0.136"/><circle cx="1272" cy="342" r="2.2" fill="#6246FF" opacity="0.124"/><circle cx="1306" cy="342" r="2.2" fill="#6246FF" opacity="0.112"/><circle cx="1340" cy="342" r="2.2" fill="#6246FF" opacity="0.100"/><circle cx="1374" cy="342" r="2.2" fill="#6246FF" opacity="0.088"/><circle cx="1408" cy="342" r="2.2" fill="#6246FF" opacity="0.076"/><circle cx="1442" cy="342" r="2.2" fill="#6246FF" opacity="0.064"/><circle cx="1000" cy="376" r="2.2" fill="#6246FF" opacity="0.220"/><circle cx="1034" cy="376" r="2.2" fill="#6246FF" opacity="0.208"/><circle cx="1068" cy="376" r="2.2" fill="#6246FF" opacity="0.196"/><circle cx="1102" cy="376" r="2.2" fill="#6246FF" opacity="0.184"/><circle cx="1136" cy="376" r="2.2" fill="#6246FF" opacity="0.172"/><circle cx="1170" cy="376" r="2.2" fill="#6246FF" opacity="0.160"/><circle cx="1204" cy="376" r="2.2" fill="#6246FF" opacity="0.148"/><circle cx="1238" cy="376" r="2.2" fill="#6246FF" opacity="0.136"/><circle cx="1272" cy="376" r="2.2" fill="#6246FF" opacity="0.124"/><circle cx="1306" cy="376" r="2.2" fill="#6246FF" opacity="0.112"/><circle cx="1340" cy="376" r="2.2" fill="#6246FF" opacity="0.100"/><circle cx="1374" cy="376" r="2.2" fill="#6246FF" opacity="0.088"/><circle cx="1408" cy="376" r="2.2" fill="#6246FF" opacity="0.076"/><circle cx="1442" cy="376" r="2.2" fill="#6246FF" opacity="0.064"/>
  <rect x="90" y="421" width="8" height="18" rx="4" fill="url(#waveGrad)" opacity="0.55"/><rect x="116" y="413" width="8" height="34" rx="4" fill="url(#waveGrad)" opacity="0.55"/><rect x="142" y="402.5" width="8" height="55" rx="4" fill="url(#waveGrad)" opacity="0.55"/><rect x="168" y="390" width="8" height="80" rx="4" fill="url(#waveGrad)" opacity="0.55"/><rect x="194" y="370" width="8" height="120" rx="4" fill="url(#waveGrad)" opacity="0.55"/><rect x="220" y="355" width="8" height="150" rx="4" fill="url(#waveGrad)" opacity="0.55"/><rect x="246" y="375" width="8" height="110" rx="4" fill="url(#waveGrad)" opacity="0.55"/><rect x="272" y="395" width="8" height="70" rx="4" fill="url(#waveGrad)" opacity="0.55"/><rect x="298" y="408" width="8" height="44" rx="4" fill="url(#waveGrad)" opacity="0.55"/><rect x="324" y="385" width="8" height="90" rx="4" fill="url(#waveGrad)" opacity="0.55"/><rect x="350" y="365" width="8" height="130" rx="4" fill="url(#waveGrad)" opacity="0.55"/><rect x="376" y="382" width="8" height="96" rx="4" fill="url(#waveGrad)" opacity="0.55"/><rect x="402" y="400" width="8" height="60" rx="4" fill="url(#waveGrad)" opacity="0.55"/><rect x="428" y="415" width="8" height="30" rx="4" fill="url(#waveGrad)" opacity="0.55"/><rect x="454" y="404" width="8" height="52" rx="4" fill="url(#waveGrad)" opacity="0.55"/><rect x="480" y="388" width="8" height="84" rx="4" fill="url(#waveGrad)" opacity="0.55"/><rect x="506" y="370" width="8" height="120" rx="4" fill="url(#waveGrad)" opacity="0.55"/><rect x="532" y="393" width="8" height="74" rx="4" fill="url(#waveGrad)" opacity="0.55"/><rect x="558" y="410" width="8" height="40" rx="4" fill="url(#waveGrad)" opacity="0.55"/><rect x="584" y="419" width="8" height="22" rx="4" fill="url(#waveGrad)" opacity="0.55"/>

  <!-- top accent hairline -->
  <rect x="0" y="0" width="1500" height="4" fill="url(#accent)" opacity="0.85"/>

  <!-- eyebrow -->
  <text x="92" y="150" font-family="Segoe UI, Arial, sans-serif" font-size="22" letter-spacing="6" font-weight="700" fill="#8b74ff">SOFTWARE AND AI</text>

  <!-- name -->
  <text x="90" y="238" font-family="Segoe UI, Arial, sans-serif" font-size="86" font-weight="800" fill="#ffffff" letter-spacing="-1">Michael Abraham</text>

  <!-- title -->
  <text x="92" y="292" font-family="Segoe UI, Arial, sans-serif" font-size="34" font-weight="600" fill="#c9c2ff">AI Architect and Full Stack Developer</text>

  <!-- tagline -->
  <text x="92" y="340" font-family="Segoe UI, Arial, sans-serif" font-size="22" font-weight="400" fill="#9a94b8">I design AI agents and ship full stack products that reach production and stay there.</text>
</svg>